<?xml version="1.0" encoding="UTF-8"?>
<svg id="Layer_2" data-name="Layer 2" xmlns="http://www.w3.org/2000/svg" viewBox="0 0 245.5 67.69">
  <defs>
    <style>
      .cls-1 {
        fill: #ca1b28;
      }

      .cls-2 {
        fill: #e6e6e6;
      }
    </style>
  </defs>
  <g id="Layer_1-2" data-name="Layer 1">
    <g>
      <g>
        <path d="M96.02,3.68h-4.72v14.13h-2.74V3.68h-4.7V1.36h12.16v2.32Z"/>
        <path d="M95.01,17.81l6.16-16.45h3.07l6.12,16.45h-2.99l-1.41-3.97h-6.6l-1.37,3.97h-2.98ZM100.07,11.59h5.15l-2.28-6.54c-.05-.17-.1-.34-.14-.51-.04-.17-.08-.38-.11-.64h-.07c-.04.23-.08.43-.12.61-.04.18-.09.35-.15.52l-2.27,6.56Z"/>
        <path d="M121.73,17.81h-9.11V1.36h2.73v14.13h6.38v2.32Z"/>
        <path d="M133.34,17.81h-9.24V1.36h8.87v2.32h-6.14v4.66h5.69v2.31h-5.69v4.85h6.5v2.32Z"/>
        <path d="M150.23,17.81h-2.99l-7.7-11.86c-.15-.23-.28-.44-.39-.64-.11-.2-.2-.38-.28-.54h-.06c.03.23.05.55.07.95.02.41.02.9.02,1.49v10.6h-2.64V1.36h3.18l7.47,11.6c.16.24.3.47.42.67.12.2.23.38.31.54h.05c-.04-.22-.06-.53-.08-.92-.02-.39-.02-.87-.02-1.43V1.36h2.64v16.45Z"/>
        <path d="M164.82,3.68h-4.72v14.13h-2.74V3.68h-4.7V1.36h12.16v2.32Z"/>
        <path d="M83.66,42.26l6.16-16.45h3.07l6.12,16.45h-2.99l-1.41-3.97h-6.6l-1.37,3.97h-2.98ZM88.72,36.04h5.15l-2.28-6.54c-.05-.17-.1-.34-.14-.51-.04-.17-.08-.38-.11-.64h-.07c-.04.23-.08.43-.12.61-.04.18-.09.35-.15.52l-2.27,6.56Z"/>
        <path d="M112.76,41.44c-.83.38-1.63.66-2.41.83-.78.17-1.63.26-2.55.26-2.52,0-4.49-.74-5.91-2.21-1.42-1.47-2.13-3.48-2.13-6.03s.79-4.71,2.36-6.33c1.57-1.62,3.63-2.43,6.18-2.43.82,0,1.57.07,2.25.2s1.39.35,2.13.65l-.88,2.23c-.58-.24-1.15-.41-1.69-.52-.55-.11-1.14-.16-1.77-.16-1.67,0-3.03.55-4.1,1.66-1.07,1.11-1.6,2.62-1.6,4.52s.49,3.33,1.48,4.4c.99,1.08,2.31,1.61,3.97,1.61.54,0,1.12-.07,1.74-.21.62-.14,1.26-.36,1.92-.68l1.02,2.2Z"/>
        <path d="M126.72,41.44c-.83.38-1.63.66-2.41.83-.78.17-1.63.26-2.55.26-2.52,0-4.49-.74-5.91-2.21-1.42-1.47-2.13-3.48-2.13-6.03s.79-4.71,2.36-6.33c1.57-1.62,3.63-2.43,6.18-2.43.82,0,1.57.07,2.25.2s1.39.35,2.13.65l-.88,2.23c-.58-.24-1.15-.41-1.69-.52-.55-.11-1.14-.16-1.77-.16-1.67,0-3.03.55-4.1,1.66-1.07,1.11-1.6,2.62-1.6,4.52s.49,3.33,1.48,4.4c.99,1.08,2.31,1.61,3.97,1.61.54,0,1.12-.07,1.74-.21.62-.14,1.26-.36,1.92-.68l1.02,2.2Z"/>
        <path d="M138.6,42.26h-9.24v-16.45h8.87v2.32h-6.14v4.66h5.69v2.31h-5.69v4.85h6.5v2.32Z"/>
        <path d="M150.63,42.26h-9.11v-16.45h2.73v14.13h6.38v2.32Z"/>
        <path d="M162.24,42.26h-9.24v-16.45h8.87v2.32h-6.14v4.66h5.69v2.31h-5.69v4.85h6.5v2.32Z"/>
        <path d="M177.6,42.26h-3.14l-2.54-4.39c-.45-.77-.86-1.3-1.23-1.59-.37-.29-.8-.44-1.3-.46h-1.49v6.45h-2.73v-16.45h5.35c1.69,0,3.02.38,3.99,1.15.97.77,1.46,1.91,1.46,3.42,0,1.13-.31,2.09-.94,2.88-.62.79-1.47,1.37-2.55,1.73v.05c.41.18.78.44,1.11.8.34.36.65.78.94,1.28l3.06,5.15ZM167.91,28.02v5.56h2.16c.89,0,1.62-.28,2.19-.84s.85-1.27.85-2.12-.25-1.46-.76-1.92-1.25-.69-2.23-.69h-2.2Z"/>
        <path d="M177.96,42.26l6.16-16.45h3.07l6.12,16.45h-2.99l-1.41-3.97h-6.6l-1.37,3.97h-2.98ZM183.02,36.04h5.15l-2.28-6.54c-.05-.17-.1-.34-.14-.51-.04-.17-.08-.38-.11-.64h-.07c-.04.23-.08.43-.12.61-.04.18-.09.35-.15.52l-2.27,6.56Z"/>
        <path d="M204.5,28.13h-4.72v14.13h-2.74v-14.13h-4.7v-2.32h12.16v2.32Z"/>
        <path d="M209.7,42.26h-2.77v-16.45h2.77v16.45Z"/>
        <path d="M220.56,42.53c-2.35,0-4.24-.77-5.68-2.3-1.44-1.53-2.16-3.53-2.16-6,0-2.62.73-4.73,2.2-6.32,1.46-1.59,3.43-2.39,5.9-2.39,2.31,0,4.17.77,5.59,2.3s2.12,3.55,2.12,6.04c0,2.64-.73,4.74-2.19,6.31-1.46,1.57-3.39,2.35-5.79,2.35ZM220.59,40.15c1.56,0,2.8-.53,3.71-1.59.91-1.06,1.37-2.55,1.37-4.45s-.44-3.48-1.33-4.55c-.88-1.08-2.09-1.62-3.63-1.62s-2.77.56-3.71,1.69-1.41,2.6-1.41,4.44.46,3.33,1.38,4.43c.92,1.11,2.13,1.66,3.62,1.66Z"/>
        <path d="M245.5,42.26h-2.99l-7.7-11.86c-.15-.23-.28-.44-.39-.64-.11-.2-.2-.38-.28-.54h-.06c.03.23.05.55.07.95.02.41.02.9.02,1.49v10.6h-2.64v-16.45h3.18l7.47,11.6c.16.24.3.47.42.67.12.2.23.38.31.54h.05c-.04-.22-.06-.53-.08-.92-.02-.39-.02-.87-.02-1.43v-10.46h2.64v16.45Z"/>
        <path d="M88.22,60.96v5.75h-2.73v-16.45h5.1c1.9,0,3.34.44,4.34,1.32,1,.88,1.5,2.17,1.5,3.85s-.56,2.97-1.69,3.99c-1.12,1.03-2.64,1.54-4.54,1.54h-1.98ZM88.22,52.49v6.24h1.77c1.18,0,2.07-.27,2.67-.82.6-.55.91-1.34.91-2.37s-.29-1.78-.86-2.29c-.57-.51-1.43-.76-2.58-.76h-1.9Z"/>
        <path d="M108.33,66.71h-9.11v-16.45h2.73v14.13h6.38v2.32Z"/>
        <path d="M109.56,66.71l6.16-16.45h3.07l6.12,16.45h-2.99l-1.41-3.97h-6.6l-1.37,3.97h-2.98ZM114.62,60.49h5.15l-2.28-6.54c-.05-.17-.1-.34-.14-.51-.04-.17-.08-.38-.11-.64h-.07c-.04.23-.08.43-.12.61-.04.18-.09.35-.15.52l-2.27,6.56Z"/>
        <path d="M136.1,52.57h-4.72v14.13h-2.74v-14.13h-4.7v-2.32h12.16v2.32Z"/>
        <path d="M147.41,52.57h-6.15v4.94h5.67v2.31h-5.67v6.88h-2.73v-16.45h8.88v2.32Z"/>
        <path d="M157.11,66.98c-2.35,0-4.24-.77-5.68-2.3-1.44-1.53-2.16-3.53-2.16-6,0-2.62.73-4.73,2.2-6.32,1.46-1.59,3.43-2.39,5.9-2.39,2.31,0,4.17.77,5.59,2.3s2.12,3.55,2.12,6.04c0,2.64-.73,4.74-2.19,6.31-1.46,1.57-3.39,2.35-5.79,2.35ZM157.15,64.6c1.56,0,2.8-.53,3.71-1.59.91-1.06,1.37-2.55,1.37-4.45s-.44-3.48-1.33-4.55c-.88-1.08-2.09-1.62-3.63-1.62s-2.77.56-3.71,1.69-1.41,2.6-1.41,4.44.46,3.33,1.38,4.43c.92,1.11,2.13,1.66,3.62,1.66Z"/>
        <path d="M180.53,66.71h-3.14l-2.54-4.39c-.45-.77-.86-1.3-1.23-1.59-.37-.29-.8-.44-1.3-.46h-1.49v6.45h-2.73v-16.45h5.35c1.69,0,3.02.38,3.99,1.15.97.77,1.46,1.91,1.46,3.42,0,1.13-.31,2.09-.94,2.88-.62.79-1.47,1.37-2.55,1.73v.05c.41.18.78.44,1.11.8.34.36.65.78.94,1.28l3.06,5.15ZM170.84,52.47v5.56h2.16c.89,0,1.62-.28,2.19-.84s.85-1.27.85-2.12-.25-1.46-.76-1.92-1.25-.69-2.23-.69h-2.2Z"/>
        <path d="M200.4,66.71h-2.71v-10.5c0-.47.01-.99.04-1.55s.06-1.16.11-1.8h-.07c-.09.44-.18.81-.26,1.12-.08.31-.16.56-.23.74l-4.83,11.99h-1.88l-4.85-11.89c-.06-.17-.14-.42-.22-.75-.09-.33-.18-.73-.28-1.22h-.07c.05.55.08,1.13.09,1.75s.02,1.26.02,1.94v10.15h-2.52v-16.45h3.85l4.28,10.69c.17.41.31.78.42,1.12.11.34.2.66.26.95h.07c.14-.44.27-.83.39-1.18.12-.35.24-.66.34-.92l4.34-10.66h3.72v16.45Z"/>
      </g>
      <rect class="cls-1" width="67.69" height="67.69"/>
      <g>
        <rect class="cls-2" x="42.06" y="49.07" width="6.09" height="6.09"/>
        <rect class="cls-2" x="48.15" y="42.98" width="6.09" height="6.09"/>
        <polygon class="cls-2" points="35.98 24.71 48.16 24.71 48.16 18.61 35.98 18.61 35.98 12.57 35.98 12.53 35.98 6.43 29.88 6.43 29.88 12.53 23.78 12.53 23.78 18.61 17.68 18.61 17.68 24.71 23.78 24.71 23.78 55.18 29.88 55.18 29.88 61.27 35.98 61.27 42.06 61.27 42.06 55.16 35.98 55.16 35.98 24.71"/>
      </g>
      <rect x="203.1" y="59.59" width="6.09" height="6.09"/>
    </g>
  </g>
</svg>